<svg width="75" height="12" viewBox="0 0 75 12" fill="none" xmlns="http://www.w3.org/2000/svg">
<g clip-path="url(#clip0_9_23)">
<path d="M5.21696 8.86933L8.15915 2.51514H10.3529V10.7998H8.90667V3.78264L5.65608 10.8441H4.61582L1.39745 3.82689V10.7998H0V2.51514H2.29134L5.21696 8.86933Z" fill="white"/>
<path d="M18.271 9.4587C17.9617 10.0482 17.0687 10.9625 15.5894 10.9625C13.5898 10.9625 12.2246 9.59146 12.2246 7.70441V3.51782H13.7196V7.45391C13.7196 8.82495 14.5813 9.72422 15.9465 9.72422C17.3118 9.72422 18.271 8.79573 18.271 7.45391V3.51782H19.7504V10.8005H18.271V9.4587Z" fill="white"/>
<path d="M30.5411 10.7997H28.6392C26.7695 10.7997 25.8277 9.98895 25.8277 8.36742V4.72608H24.063V3.51703H25.8277V1.68091H27.3071V3.51703H30.5411V4.72608H27.3071V8.05765C27.3071 9.1189 27.6809 9.56144 28.9651 9.56144H30.5421V10.7997H30.5411Z" fill="white"/>
<path d="M39.1102 10.9324H37.9235L34.1362 3.51782H35.7942L38.5569 9.13389L41.3039 3.51782H42.8312L39.1102 10.9324Z" fill="white"/>
<path d="M51.0078 7.32117H44.328C44.409 8.67717 45.4824 9.73927 47.0584 9.73927C48.6345 9.73927 49.3176 8.95773 49.4474 8.72226H50.9102C50.7804 9.35601 49.7558 10.9775 47.0584 10.9775C44.5719 10.9775 42.832 9.29673 42.832 7.15918C42.832 5.02163 44.571 3.34082 46.9111 3.34082C49.2513 3.34082 51.0078 4.93313 51.0078 7.32117ZM44.4256 6.20062H49.3663C48.9926 5.09511 48.1309 4.49059 46.9121 4.49059C45.6122 4.49059 44.734 5.13937 44.4256 6.20062Z" fill="white"/>
<path d="M53.9213 10.7998H52.4419V3.51792H53.9213V4.85973C54.1487 4.32869 54.8317 3.45947 56.7171 3.45947H57.5843V4.80128H56.6849C54.6209 4.80128 53.9222 5.39078 53.9222 6.68834V10.8014L53.9213 10.7998Z" fill="white"/>
<path d="M60.838 7.60106C59.2941 7.43907 58.2051 6.77526 58.2051 5.43428C58.2051 4.09331 59.5381 3.31177 61.5045 3.31177C64.2193 3.31177 65.0966 4.57927 65.3562 5.31655H63.7792C63.6006 5.12451 62.9995 4.46153 61.5035 4.46153C60.2847 4.46153 59.667 4.85982 59.667 5.39003C59.667 5.92024 60.0739 6.23002 61.0322 6.33356C61.6656 6.40704 62.0559 6.43709 62.7546 6.51057C64.6565 6.73184 65.4685 7.46829 65.4685 8.81011C65.4685 10.0342 64.2331 11.0069 61.9583 11.0069C59.1303 11.0069 58.1388 9.42966 57.9602 8.76669H59.5372C59.6182 9.00215 60.2681 9.82795 61.9592 9.82795C63.3245 9.82795 63.991 9.38541 63.991 8.81094C63.991 8.23648 63.6494 7.89664 62.5604 7.77891L60.838 7.60106Z" fill="white"/>
<path d="M31.6475 0.00683594H33.1913V2.11516H31.6475V0.00683594ZM31.6797 3.51542H33.1591V10.7981H31.6797V3.51542Z" fill="white"/>
<path d="M21.6221 1.27856H23.1015V10.7982H21.6221V1.27856Z" fill="white"/>
<path d="M71.4079 4.44641L75 2.718L74.3961 1.67261L71.1069 2.8708C71.0222 2.9017 70.9283 2.9017 70.8436 2.8708L67.5543 1.67261L66.9504 2.718L70.5426 4.44641L66.9504 6.17482L67.5543 7.22021L70.8436 6.02201C70.9283 5.99112 71.0222 5.99112 71.1069 6.02201L74.3961 7.22021L75 6.17482L71.4079 4.44641Z" fill="#23F7DD"/>
</g>
<defs>
<clipPath id="clip0_9_23">
<rect width="75" height="12" fill="white"/>
</clipPath>
</defs>
</svg>
